# xmcd
#
# Track frame offsets:
#	150
#	20588
#	41062
#	58461
#	75860
#	93488
#
# Disc length: 1475 seconds
#
# Revision: 0
# Processed by: cddbd v1.5PL3 Copyright (c) Steve Scherf et al.
# Submitted via: dBpowerAMP V4.0
#
DISCID=4605c106
DTITLE=Nadine Salem - Runway
DYEAR=2003
DGENRE=R&B
TTITLE0=Voodoo Doll
TTITLE1=Voodoo Doll SP2
TTITLE2=Thank U
TTITLE3=Thank U Again
TTITLE4=Running
TTITLE5=Still Running
EXTD=The title song "Runway" is not on this edition since it was produced in a different studio
EXTT0=
EXTT1=
EXTT2=
EXTT3=
EXTT4=
EXTT5=
PLAYORDER=
